<svg xmlns="http://www.w3.org/2000/svg" viewBox="0 0 512 512">
  <defs>
    <linearGradient id="scale" x1="0.1" y1="0" x2="0.75" y2="1">
      <stop offset="0" stop-color="#f05454"/>
      <stop offset="0.55" stop-color="#c62828"/>
      <stop offset="1" stop-color="#7a1212"/>
    </linearGradient>
  </defs>

  <rect width="512" height="512" rx="104" fill="#14161f"/>
  <rect x="16" y="16" width="480" height="480" rx="90" fill="none" stroke="#7a1212" stroke-width="8"/>

  <g stroke="#420a0a" stroke-width="8" stroke-linejoin="round" stroke-linecap="round">
    <path fill="url(#scale)" d="M292 184 C346 150 402 142 456 120 C404 156 372 192 338 220 C322 206 306 192 292 184 Z"/>
    <path fill="url(#scale)" d="M268 188 C314 160 354 154 398 144 C356 172 332 200 308 226 C296 212 282 198 268 188 Z"/>
    <path fill="#9e1c1c" d="M338 262 L382 256 L356 290 Z"/>
    <path fill="#9e1c1c" d="M348 300 L392 300 L360 332 Z"/>
    <path fill="url(#scale)" d="M92 318 C140 258 172 238 214 218 C238 192 270 184 302 192 C336 208 356 228 360 260 C364 304 352 344 320 370 C298 388 266 392 240 380 C206 364 168 352 140 340 C122 330 104 326 92 318 Z"/>
  </g>

  <path d="M104 322 C168 342 244 346 300 330" fill="none" stroke="#420a0a" stroke-width="7" stroke-linecap="round"/>
  <path d="M132 328 L140 348 L150 330 Z" fill="#f3edde" stroke="#420a0a" stroke-width="2.5"/>
  <path d="M176 334 L184 356 L194 335 Z" fill="#f3edde" stroke="#420a0a" stroke-width="2.5"/>
  <path d="M232 228 C250 216 270 216 288 226" fill="none" stroke="#420a0a" stroke-width="8" stroke-linecap="round"/>
  <ellipse cx="256" cy="248" rx="18" ry="16" fill="#14161f"/>
  <circle cx="261" cy="243" r="6.5" fill="#ffd76a"/>
  <circle cx="118" cy="308" r="6" fill="#420a0a"/>
</svg>
